<svg width="14" height="11" viewBox="0 0 14 11" fill="none" xmlns="http://www.w3.org/2000/svg">
<path d="M12.7969 2.14062C12.9609 2.14062 13.125 2.00391 13.125 1.8125V0.9375C13.125 0.773438 12.9609 0.609375 12.7969 0.609375H1.20312C1.01172 0.609375 0.875 0.773438 0.875 0.9375V1.8125C0.875 2.00391 1.01172 2.14062 1.20312 2.14062H12.7969ZM12.7969 6.51562C12.9609 6.51562 13.125 6.37891 13.125 6.1875V5.3125C13.125 5.14844 12.9609 4.98438 12.7969 4.98438H1.20312C1.01172 4.98438 0.875 5.14844 0.875 5.3125V6.1875C0.875 6.37891 1.01172 6.51562 1.20312 6.51562H12.7969ZM12.7969 10.8906C12.9609 10.8906 13.125 10.7539 13.125 10.5625V9.6875C13.125 9.52344 12.9609 9.35938 12.7969 9.35938H1.20312C1.01172 9.35938 0.875 9.52344 0.875 9.6875V10.5625C0.875 10.7539 1.01172 10.8906 1.20312 10.8906H12.7969Z" fill="white"/>
</svg>
